<?xml version="1.0" encoding="UTF-8" standalone="no"?>
<svg
   enable-background="new 0 0 244.01 99"
   height="146.39566"
   viewBox="0 0 221.08 71.906262"
   width="449.51599"
   version="1.1"
   id="svg7"
   sodipodi:docname="마일리지 플러스 로고.svg"
   inkscape:version="1.3.2 (091e20e, 2023-11-25, custom)"
   xmlns:inkscape="http://www.inkscape.org/namespaces/inkscape"
   xmlns:sodipodi="http://sodipodi.sourceforge.net/DTD/sodipodi-0.dtd"
   xmlns="http://www.w3.org/2000/svg"
   xmlns:svg="http://www.w3.org/2000/svg">
  <defs
     id="defs7" />
  <sodipodi:namedview
     id="namedview7"
     pagecolor="#ffffff"
     bordercolor="#000000"
     borderopacity="0.25"
     inkscape:showpageshadow="2"
     inkscape:pageopacity="0.0"
     inkscape:pagecheckerboard="0"
     inkscape:deskcolor="#d1d1d1"
     inkscape:zoom="2.7371365"
     inkscape:cx="220.66857"
     inkscape:cy="73.251737"
     inkscape:window-width="1920"
     inkscape:window-height="991"
     inkscape:window-x="-9"
     inkscape:window-y="-9"
     inkscape:window-maximized="1"
     inkscape:current-layer="svg7" />
  <path
     d="m 4.4,37.48547 8.16,20.11 1.1,2.85 h 0.11 l 1.07,-2.85 8.15,-20.11 h 4.37 v 28.45 h -3.53 v -18.82 l 0.08,-3.07 -0.11,-0.04 -1.1,2.89 -7.7,19.04 h -2.73 l -7.67,-18.89 -1.1,-2.89 -0.08,0.04 0.04,3.07 v 18.67 H 0 v -28.45 z m 30.28,2.05 c -1.55,0 -2.31,-0.49 -2.31,-1.94 0,-1.26 0.76,-1.94 2.31,-1.94 1.56,0 2.32,0.68 2.32,1.94 0,1.33 -0.76,1.94 -2.32,1.94 z m -1.82,26.4 v -17.15 -5.35 l 3.61,-0.02 v 22.52 z m 9.33,0 v -23.95 -5.99 l 3.61,-0.01 v 29.95 z m 8.43,-11.9 c 0,-7.1 3.11,-11.09 9.33,-11.09 5.39,0 8.92,3.19 8.92,10.44 0,0.57 -0.04,1.24 -0.08,1.74 H 54.3 c 0.19,5.96 2.39,8 7.25,8 2.27,0 4.21,-0.49 6.14,-1.43 l 0.42,3.03 c -1.89,1.03 -4.25,1.67 -6.98,1.67 -7.44,0 -10.51,-3.91 -10.51,-12.36 z m 14.95,-1.38 c -0.08,-4.79 -2.32,-6.6 -5.58,-6.6 -3.83,0 -5.54,2.12 -5.77,6.6 z m 20.22,10.51 -0.12,-0.04 c -1.32,1.94 -3.79,3.15 -6.71,3.15 -4.14,0 -6.95,-2.17 -6.95,-7.25 0,-4.26 2.73,-6.87 8.12,-6.87 1.93,0 3.79,0.38 5.19,0.87 v -2.24 c 0,-3.57 -1.59,-4.81 -5.27,-4.81 -2.39,0 -4.33,0.42 -6.34,1.36 l -0.34,-2.99 c 2.16,-0.99 4.59,-1.48 7.29,-1.48 5.95,0 8.19,2.51 8.19,8.46 v 14.61 h -2.73 z m -0.49,-7.55 c -0.56,-0.34 -2.24,-0.84 -4.51,-0.84 -3.76,0 -5.39,1.52 -5.39,4.22 0,3.22 1.94,4.32 4.55,4.32 2.81,0 5.35,-1.89 5.35,-3.79 z m 13.93,0.42 c -1.1,0.3 -1.71,0.91 -1.71,1.67 0,0.76 0.61,1.4 1.97,1.52 l 5.5,0.46 c 5.47,0.46 7.25,2.27 7.25,5.46 0,4.13 -2.58,6.79 -9.63,6.79 -6.11,0 -8.69,-2.43 -8.69,-5.96 0,-1.6 0.76,-3.12 2.21,-4.24 -1.06,-0.61 -1.9,-1.67 -1.9,-3.16 0,-1.44 0.99,-2.78 2.81,-3.46 l 0.04,-0.08 c -1.63,-0.98 -2.69,-2.65 -2.69,-5.35 0,-4.17 2.24,-6.75 8.01,-6.75 1.97,0 4.02,0.34 5.58,1.4 l 3.72,-1.48 0.8,1.82 -2.73,1.9 c 0.38,0.86 0.61,1.85 0.61,3.11 0,4.29 -2.09,6.68 -7.97,6.68 -1.1,0.01 -2.16,-0.07 -3.18,-0.33 z m -0.35,6.33 c -1.25,0.87 -1.86,2.09 -1.86,3.15 0,2.28 1.6,3.58 5.5,3.58 5.12,0 6.41,-1.41 6.41,-3.46 0,-1.6 -0.83,-2.43 -4.55,-2.77 z m -0.95,-12.59 c 0,3.19 1.86,3.95 4.4,3.95 3.49,0 4.55,-1.29 4.55,-3.95 0,-2.95 -1.33,-3.98 -4.48,-3.98 -3.29,0 -4.47,1.28 -4.47,3.98 z m 16.57,4.26 c 0,-7.1 3.11,-11.09 9.33,-11.09 5.38,0 8.92,3.19 8.92,10.44 0,0.57 -0.04,1.24 -0.08,1.74 h -14.49 c 0.19,5.96 2.38,8 7.25,8 2.27,0 4.21,-0.49 6.14,-1.43 l 0.42,3.03 c -1.9,1.03 -4.26,1.67 -6.98,1.67 -7.44,0 -10.51,-3.91 -10.51,-12.36 z m 14.94,-1.38 c -0.07,-4.79 -2.31,-6.6 -5.58,-6.6 -3.82,0 -5.53,2.12 -5.76,6.6 z m 45.07,-37.66 c 0.15,-0.46 0.22,-1.02 0.22,-1.69 0,-0.64 -0.07,-1.18 -0.22,-1.63 -0.14,-0.45 -0.38,-0.82 -0.71,-1.11 -0.33,-0.29 -0.76,-0.5 -1.3,-0.6300001 -0.53,-0.13 -1.19,-0.2 -1.97,-0.2 h -3.18 V 16.85547 h 3.18 c 0.76,0 1.4,-0.06 1.93,-0.18 0.53,-0.12 0.97,-0.32 1.3,-0.59 0.36,-0.27 0.6,-0.63 0.75,-1.09 m 2.44,-6.5800001 c 0.66,0.59 1.15,1.3 1.46,2.1300001 0.31,0.83 0.47,1.75 0.47,2.76 0,2.25 -0.71,3.94 -2.13,5.06 -1.42,1.12 -3.43,1.68 -6.02,1.68 h -7.29 V 6.5654699 h 7.29 c 1.44,0 2.67,0.16 3.7,0.49 1.02,0.31 1.86,0.77 2.52,1.36 m -29,6.1000001 h 7.38 v -2.64 h -7.38 V 9.6354699 h 8.76 l -0.07,-3.08 H 144.03 V 20.04547 H 157 l 0.07,-3.04 h -9.12 z m -23.84,-7.9500001 -0.11,3.18 h 5.16 V 20.05547 h 3.94 V 9.7454699 h 5.16 l -0.09,-3.18 z M 114.04,20.05547 h 3.99 V 6.5654699 h -3.99 z m -11.09,-6.78 0.04,1.44 -0.04,0.04 -1.03,-1.04 -7.3,-7.1400001 H 91.38 V 20.06547 h 3.56 v -7.09 l -0.04,-1.46 0.05,-0.02 1.03,1.03 7.95,7.54 h 2.57 V 6.5654699 h -3.56 V 13.27547 Z m -22.41,0.9 c 0,1.02 -0.29,1.78 -0.86,2.28 -0.58,0.5 -1.5,0.75 -2.77,0.75 -1.28,0 -2.22,-0.25 -2.82,-0.75 -0.6,-0.5 -0.9,-1.26 -0.9,-2.28 V 6.5654699 H 69.27 V 14.13547 c 0,2.09 0.66,3.64 1.97,4.67 1.31,1.03 3.21,1.54 5.68,1.54 2.48,0 4.36,-0.51 5.63,-1.53 1.27,-1.02 1.91,-2.58 1.91,-4.68 V 6.5654699 h -3.9 V 14.17547 Z m 128.73,12.79 c 0.54,-1 1.14,-2.25 1.53,-3.31 0.01,0.03 0.21,0.56 0.36,1.1 0.31,-1.08 0.53,-2.21 0.65,-3.37 -0.04,-0.15 -0.12,-0.39 -0.17,-0.54 0,0 0.2,-0.99 0.27,-2.11 0.11,0.77 0.16,1.56 0.16,2.35 0,1.37 -0.16,2.72 -0.48,4.02 -0.16,0.64 -0.36,1.27 -0.58,1.86 z m -1.93,0 h 1.02 c 2.89,-4.27 3.04,-8.06 3.04,-8.78 0,-1.37 -0.23,-2.63 -0.61,-3.63 0,0 -0.6,-1.55 -1.53,-2.93 0.1,0.31 0.3,0.93 0.41,1.49 0.01,0.04 0.01,0.07 0.02,0.1 0.18,0.31 1.01,1.77 1.13,3.38 0.12,1.61 -0.59,-0.82 -1.02,-1.34 -0.02,0.88 -0.13,1.77 -0.32,2.62 0,0 0.87,1.01 1.26,1.66 0,0 -0.26,1.42 -0.83,2.77 -0.58,-0.84 -1.31,-1.65 -1.31,-1.65 -0.43,1.07 -0.98,2.14 -1.58,3.13 0,0 1.1,1.29 1.34,1.66 -0.35,0.55 -0.67,1.02 -1.02,1.52 z m -3.62,0 c 1.92,-2.15 3.55,-4.67 4.54,-7.37 0.85,-2.35 1.32,-5.21 0.56,-7.76 -0.05,-0.17 -0.11,-0.34 -0.17,-0.51 -0.24,-0.62 -0.55,-1.17 -0.89,-1.5900001 -0.92,-1.03 -1.96,-1.94 -3.1,-2.72 0.17,0.22 0.32,0.44 0.45,0.66 0,0 1.39,1.03 2.19,2.07 -1.03,-0.74 -1.62,-1.03 -1.69,-1.07 h -0.01 c 0.39,0.97 0.51,1.7700001 0.51,1.7700001 0,0 1.23,0.64 2.33,1.59 0.15,0.71 0.22,1.43 0.21,2.15 -1.11,-0.98 -2.4,-1.74 -2.4,-1.74 -0.02,0.83 -0.14,1.67 -0.32,2.48 0,0 1.21,0.77 2.4,1.85 0,0 -0.34,1.53 -0.89,2.73 -1.14,-1.06 -2.24,-1.88 -2.33,-1.94 0,0 -0.56,1.47 -1.48,2.95 1.14,0.99 2.21,2.01 2.21,2.01 -0.65,1.02 -1.39,1.99 -2.19,2.9 l -2.03,-2.03 c -0.83,1.02 -1.73,1.99 -2.69,2.87 0.05,0.05 0.46,0.51 0.62,0.69 h 4.17 z m 0.53,-19.7200001 c -0.13,-0.18 -0.28,-0.36 -0.45,-0.53 -0.15,-0.14 -0.3,-0.27 -0.45,-0.39 -1.69,-1.28 -4.81,-1.91 -4.81,-1.91 0.3,0.16 0.54,0.32 0.55,0.32 0.01,0 1.27,0.32 2.38,0.86 0,0 -1.01,-0.23 -1.66,-0.32 0.27,0.24 0.52,0.51 0.75,0.79 0,0 2.07,0.38 2.97,0.87 0,0 0.43,0.45 0.79,1.23 -1.42,-0.58 -3.02,-0.88 -3.02,-0.88 0.21,0.48 0.37,0.99 0.46,1.52 0,0 1.76,0.43 3.09,1.07 0.11,0.6300001 0.16,1.2800001 0.13,1.9400001 -1.57,-0.78 -3.12,-1.28 -3.12,-1.28 -0.03,0.68 -0.14,1.38 -0.32,2.1 0,0 2.14,0.95 3.1,1.53 -0.21,0.85 -0.51,1.68 -0.87,2.48 -1.46,-0.95 -3.01,-1.8 -3.01,-1.8 -0.39,0.93 -1.35,2.46 -1.35,2.46 0.02,0.02 1.62,1.11 2.84,2.08 -0.61,0.92 -1.29,1.8 -2.04,2.64 -0.26,-0.25 -2.6,-2.33 -2.6,-2.33 -0.71,0.82 -1.5,1.62 -2.36,2.39 l 2.26,2.56 c -1.47,1.21 -2.93,2.12 -2.93,2.12 l -1.89,-2.68 c 0,0 -1.33,1.01 -3.57,2.07 v 0.78 h 7.36 c 8.22,-6.19 11.14,-15.08 7.77,-19.6900001 z m -4.17,-0.93 c -2.04,-2.75 -5.24,-2.35 -6.19,-2.22 -1.05,0.15 -1.84,0.38 -1.84,0.38 0.23,0.02 0.55,0.06 0.78,0.11 0.17,-0.04 1.64,-0.37 2.71,-0.23 -0.78,0.09 -1.86,0.41 -1.97,0.44 -0.11,0.03 0,0 0,0 0.04,0.01 0.35,0.1 0.74,0.34 0.12,-0.03 1.57,-0.42 2.96,-0.44 1.39,-0.02 0.51,0.23 1.01,0.57 -1.79,-0.01 -3.27,0.34 -3.31,0.35 0.21,0.19 0.42,0.41 0.61,0.68 1.96,-0.29 3.66,-0.17 3.66,-0.17 0,0 0.23,0.28 0.33,0.43 0.13,0.19 0.26,0.43 0.37,0.63 -2,-0.23 -3.92,-0.07 -3.92,-0.07 0.13,0.34 0.22,0.71 0.27,1.09 0.22,0 1.92,0 4.08,0.39 0.07,0.5 0.08,1.03 0.02,1.5900001 -0.37,-0.1 -2.14,-0.5400001 -4.08,-0.7300001 -0.04,0.48 -0.13,0.9900001 -0.27,1.5000001 0.22,0.05 2.61,0.62 3.95,1.16 -0.03,0.08 -0.05,0.17 -0.08,0.25 -0.19,0.58 -0.43,1.15 -0.72,1.73 -1.08,-0.53 -3.73,-1.57 -3.73,-1.57 -0.26,0.59 -0.59,1.19 -0.97,1.79 0,0 2.27,1.29 3.36,2.01 -0.5,0.72 -1.07,1.43 -1.7,2.11 -0.79,-0.71 -2.77,-2.25 -2.92,-2.36 -0.64,0.76 -1.44,1.56 -1.69,1.8 l 2.38,2.73 c -0.02,0.02 -0.04,0.04 -0.07,0.06 -0.51,0.43 -1.07,0.83 -1.54,1.15 -0.41,0.28 -0.74,0.49 -0.86,0.57 -0.03,-0.04 -1.58,-2.53 -1.82,-2.92 -0.17,0.13 -0.34,0.25 -0.52,0.37 v 5.11 c 0.28,-0.13 0.56,-0.27 0.84,-0.42 1.34,-0.66 2.64,-1.5 3.85,-2.47 0.78,-0.62 1.59,-1.34 2.39,-2.17 0.96,-0.98 1.78,-2.01 2.48,-3.05 2.64,-3.89 3.34,-7.9200001 1.41,-10.5200001 z m -5.3,-0.21 c -0.97,-1.12 -2.59,-1.5 -4.47,-1.23 -0.05,0.01 -0.1,0.01 -0.15,0.02 -0.14,0.02 -0.29,0.05 -0.43,0.09 -0.29,0.07 -0.49,0.13 -0.61,0.18 v 0.56 c 0.19,-0.15 0.37,-0.28 0.57,-0.42 0.37,-0.08 0.74,-0.13 1.09,-0.15 -0.54,0.31 -1.17,0.73 -1.66,1.12 v 0.43 l 0.02,0.01 c 0,0 1.38,-1.09 2.47,-1.56 0.26,0.02 0.52,0.06 0.76,0.11 -1.64,0.69 -2.84,1.55 -2.93,1.61 0.17,0.1 0.32,0.22 0.34,0.24 0.02,-0.01 1.61,-1 3.35,-1.6 0.24,0.11 0.47,0.24 0.66,0.4 -1.9,0.53 -3.73,1.49 -3.73,1.49 0.1,0.12 0.19,0.25 0.27,0.39 0.01,0 0.02,-0.01 0.03,-0.01 1.95,-0.83 4.01,-1.26 4.01,-1.26 0.16,0.22 0.29,0.47 0.4,0.74 0,0 -1.85,0.21 -4.24,0.98 0.11,0.33 0.13,0.58 0.13,0.58 0,0 2.25,-0.5 4.32,-0.56 0.03,0.33 0.02,0.71 -0.03,1.09 -1.23,-0.06 -4.16,0.09 -4.27,0.1 0,0 -0.01,0.42 -0.12,0.8200001 0,0 2.14,0.07 4.08,0.43 -0.15,0.47 -0.34,0.93 -0.57,1.37 -1.3,-0.39 -3.26,-0.86 -3.78,-0.98 -0.14,0.34 -0.31,0.67 -0.51,0.99 0,0 2.4,1.05 3.33,1.56 -0.4,0.6 -1.19,1.44 -1.19,1.44 -0.23,-0.17 -0.45,-0.33 -0.65,-0.48 -0.64,-0.45 -1.58,-1.11 -2.16,-1.51 v 1.99 l 1.25,1.46 c -0.41,0.33 -0.83,0.63 -1.25,0.9 v 1.19 c 0.02,-0.01 0.03,-0.02 0.05,-0.03 0.57,-0.39 1.13,-0.82 1.68,-1.3 4.31,-3.75 6.07,-8.7600001 3.94,-11.2000001 z m -5.66,5.6900001 c 1.1,-1.56 1.26,-3.3600001 0.29,-4.2400001 -0.09,-0.08 -0.19,-0.15 -0.29,-0.21 z m 6,-8.4100001 c 9.75,0 17.68,7.9600001 17.68,17.7400001 0,1.98 -0.34,3.96 -0.98,5.83 h 4.34 V -0.06453008 H 189.13 V 4.4454699 l 0.02,-0.01 c 1.91,-0.69 3.92,-1.05 5.97,-1.05 z M 219.27,27.12547 c 1.01,0 1.81,-0.8 1.81,-1.8 0,-1 -0.8,-1.8 -1.81,-1.8 -1.01,0 -1.81,0.8 -1.81,1.8 0,1 0.79,1.8 1.81,1.8 z m 0,-0.28 c -0.83,0 -1.53,-0.67 -1.53,-1.52 0,-0.85 0.71,-1.52 1.53,-1.52 0.83,0 1.53,0.67 1.53,1.52 0,0.85 -0.71,1.52 -1.53,1.52 z m 0.26,-1.45 c 0.35,-0.01 0.62,-0.15 0.62,-0.54 0,-0.43 -0.35,-0.52 -0.7,-0.52 h -0.86 v 1.97 h 0.28 v -0.91 h 0.33 l 0.59,0.91 h 0.33 z m -0.66,-0.28 v -0.51 h 0.53 c 0.21,0 0.48,0.04 0.48,0.24 0,0.31 -0.43,0.27 -0.67,0.27 z"
     fill="#0033a0"
     id="path1" />
  <g
     fill="#69b3e7"
     id="g7"
     transform="translate(-13.5,-13.56453)">
    <path
       d="m 232.73,76.1 c -1.01,0 -1.81,0.8 -1.81,1.8 0,1 0.8,1.8 1.81,1.8 1.01,0 1.81,-0.8 1.81,-1.8 -0.01,-1 -0.8,-1.8 -1.81,-1.8 z m 0,3.33 c -0.83,0 -1.53,-0.67 -1.53,-1.52 0,-0.85 0.71,-1.52 1.53,-1.52 0.83,0 1.53,0.67 1.53,1.52 0,0.84 -0.71,1.52 -1.53,1.52 z"
       id="path2" />
    <path
       d="m 233.61,77.43 c 0,-0.43 -0.35,-0.52 -0.7,-0.52 h -0.86 v 1.97 h 0.28 v -0.91 h 0.33 l 0.59,0.91 h 0.33 l -0.6,-0.91 c 0.36,-0.01 0.63,-0.15 0.63,-0.54 z m -0.95,0.26 h -0.33 v -0.51 h 0.53 c 0.21,0 0.48,0.04 0.48,0.24 -0.01,0.32 -0.43,0.27 -0.68,0.27 z"
       id="path3" />
    <path
       d="M 160.97,51.05 H 150.76 V 79.5 h 6.41 v -9.26 h 3.8 c 7.93,0 11.12,-3.45 11.12,-9.45 0,-6.63 -3.22,-9.74 -11.12,-9.74 z m 0,14.07 h -3.8 V 56.4 h 3.8 c 3.3,0 4.51,0.95 4.51,4.36 0,3.57 -1.36,4.36 -4.51,4.36 z"
       id="path4" />
    <path
       d="M 177.27,79.5 V 56.91 49.94 l 5.96,0.02 V 79.5 Z"
       id="path5" />
    <path
       d="m 209.55,71.39 c 0,5.57 -3.14,8.54 -9.67,8.54 -6.52,0 -9.68,-3.08 -9.68,-8.54 V 56.51 h 5.88 v 14.76 c 0,2.28 1.21,3.46 3.8,3.46 2.58,0 3.79,-1.1 3.79,-3.46 V 56.51 h 5.88 z"
       id="path6" />
    <path
       d="m 221.76,79.96 c -2.77,0 -5.28,-0.53 -7.21,-1.59 l 0.61,-4.85 c 1.89,1.1 4.59,1.63 6.57,1.63 2.35,0 3.33,-0.95 3.33,-2.32 0,-3.68 -10.65,-1.56 -10.65,-9.6 0,-4.13 2.8,-7.09 8.72,-7.09 2.32,0 4.6,0.45 6.54,1.25 l -0.49,4.82 c -1.9,-0.8 -4.45,-1.18 -6.16,-1.18 -1.93,0 -2.99,0.76 -2.99,1.94 0,3.5 10.5,1.41 10.5,9.34 -0.02,4.57 -2.55,7.65 -8.77,7.65 z"
       id="path7" />
  </g>
</svg>
